<?xml version="1.0" encoding="utf-8"?>
<!-- Generator: Adobe Illustrator 21.1.0, SVG Export Plug-In . SVG Version: 6.00 Build 0)  -->
<svg version="1.1" id="Layer_1" xmlns="http://www.w3.org/2000/svg" xmlns:xlink="http://www.w3.org/1999/xlink" x="0px" y="0px"
	 viewBox="0 0 52.3 20.9" style="enable-background:new 0 0 52.3 20.9;" xml:space="preserve">
<style type="text/css">
	.st0{fill:#FCE322;}
	.st1{enable-background:new    ;}
	.st2{fill:#FFFFFF;}
</style>
<g id="PBmTBR.tif">
</g>
<path id="Caminho_16" class="st0" d="M20.3,6.9c-0.2-0.2-0.4-0.4-0.6-0.6c-0.2-0.2-0.4-0.4-0.7-0.6c-0.5-0.4-0.9-0.7-1.4-1
	c-0.5-0.3-1-0.6-1.5-0.8c-0.5-0.2-1-0.5-1.5-0.7c-0.5-0.2-0.9-0.3-1.4-0.5c-0.7-0.2-1.4-0.4-2.1-0.5c-0.5-0.1-0.8-0.1-0.8-0.1
	s0.3,0,0.8,0.1c0.7,0.1,1.4,0.2,2.1,0.4c0.4,0.1,0.9,0.3,1.4,0.4c0.5,0.2,1,0.4,1.5,0.6c0.5,0.2,1,0.5,1.5,0.8c0.5,0.3,1,0.6,1.5,1
	c0.2,0.2,0.5,0.4,0.7,0.6c0.2,0.2,0.5,0.4,0.7,0.6c0.1,0.1,0.1,0.1,0.2,0.2c-0.4-2.3-1.6-4.4-3.2-6.1c-2.1-0.5-5.5-1-9.1-0.2
	c0,0,1.4,2.1,1.5,3.7c0,0-0.5-2.3-2-3.9C7.6,0.1,7.3,0,6.9,0l-1,0l0.8,1.6L6,2.4C5.9,2.7,4,4.9,4,4.9C3.7,5.1,3.5,5.4,3.4,5.7
	L3.3,6.3L0,9.9l0.9,0.2l0.9-0.9l-0.6,1l0.5,0.7c0.2,0.3,0.6,0.4,0.9,0.3l0.6-0.2L4.9,11l-1.3-0.8l0.3-0.5c0.4-0.6,1.1-1.1,1.8-1.2
	c0.4-0.1,0.8,0.1,0.9,0.5c0.2,0.5,0.4,1.3,0.3,2.3l-1.2,0.1l0.9,0.5l-0.2,0.4l0.1,0.4c0.1,0.5,0.5,0.8,1,0.9c0.8,0.1,2,0.2,2.7-0.1
	c0,0-1.1-0.2-1.4-0.6c0,0,0.8,0.3,1.4-0.3c0,0-1.5,0.4-1.8-1c-0.3-1.5,1.1-2.9,2.4-1.9c1.2,0.9,2.3,4.7-0.3,6.6
	c0.1,0,0.2-0.1,0.3-0.1c0.3-0.1,0.5-0.2,0.7-0.3c0.5-0.2,0.9-0.5,1.3-0.9c0.4-0.4,0.7-0.8,0.9-1.3c0.5-0.9,0.6-1.9,0.6-2.7
	c0-0.7-0.1-1.3-0.3-2c-0.1-0.5-0.2-0.7-0.2-0.7s0.1,0.3,0.3,0.7c0.2,0.6,0.3,1.3,0.4,2c0,0.5,0,0.9,0,1.4c-0.1,0.5-0.2,1-0.4,1.5
	c-0.2,0.5-0.5,1-0.9,1.4c-0.4,0.4-0.9,0.8-1.4,1c-0.2,0.1-0.5,0.3-0.8,0.4c-0.1,0.1-0.3,0.1-0.4,0.1c0,0,0,0-0.1,0h0.1
	c0,0-4.1,3.2-9.4,1.1c2.1,1.9,4.9,3.1,8,3.1c2.6,0,5-0.8,7.1-2.3c0-0.1,0.1-0.2,0.1-0.2c0.2-0.5,0.4-1.1,0.6-1.6
	c0-0.1,0.1-0.3,0.1-0.4c0-0.1,0.1-0.3,0.1-0.4c0-0.2,0.1-0.3,0.1-0.5c0-0.2,0-0.3,0.1-0.5c0.1-0.6,0.1-1.3,0.1-1.9
	c0-0.6-0.1-1.3-0.3-1.9c-0.1-0.3-0.2-0.6-0.3-0.9c-0.1-0.1-0.1-0.3-0.2-0.4l-0.1-0.2l-0.1-0.2c-0.2-0.6-0.5-1.1-0.8-1.5
	c-0.3-0.5-0.6-0.9-1-1.2C14,5.9,13.4,5.4,12.9,5c-0.4-0.3-0.7-0.5-0.7-0.5s0.3,0.2,0.7,0.5c0.5,0.3,1.1,0.8,1.8,1.5
	c0.3,0.4,0.7,0.8,1,1.2c0.3,0.5,0.6,1,0.9,1.5l0.1,0.2l0.1,0.2c0.1,0.1,0.1,0.3,0.2,0.4c0.1,0.3,0.2,0.6,0.3,0.9
	c0.2,0.6,0.3,1.3,0.3,1.9c0,0.7,0,1.3,0,2c0,0.2,0,0.3-0.1,0.5c0,0.2-0.1,0.3-0.1,0.5c0,0.2-0.1,0.3-0.1,0.5c0,0.2-0.1,0.3-0.1,0.5
	c-0.1,0.4-0.2,0.8-0.3,1.1c2.5-2.2,4-5.3,4-8.9c0-0.5,0-1-0.1-1.5C20.6,7.3,20.4,7.1,20.3,6.9z M4.7,5.7C4.6,5.8,4.4,5.9,4.3,6.1
	c0,0.1-0.1,0.1-0.1,0.1c0,0,0,0,0,0L3.9,6c0,0,0,0,0.1-0.1c0,0,0.1-0.1,0.2-0.1c0.2-0.1,0.3-0.2,0.5-0.3c0.2-0.1,0.5-0.2,0.7-0.3
	C5.1,5.3,4.9,5.5,4.7,5.7z"/>
<g>
	<g class="st1">
		<path class="st0" d="M-31.1,6.1C-31.4,6-31.7,6-32,6c-0.7,0-1.5,0.3-2,0.7v5.7h-2.2V3.9h1.8l0.5,1.2h0.1c0.3-0.8,1.1-1.4,2.2-1.4
			c0.2,0,0.5,0,0.7,0.1V6.1z"/>
		<path class="st0" d="M-29.4,0.4c0.8,0,1.3,0.6,1.3,1.3c0,0.7-0.6,1.3-1.3,1.3c-0.7,0-1.3-0.6-1.3-1.3C-30.7,1-30.1,0.4-29.4,0.4z
			 M-30.5,3.9h2.3v8.5h-2.3V3.9z"/>
		<path class="st0" d="M-24.4,1.1v8.7c0,0.6,0.3,0.8,0.7,0.8c0.2,0,0.2,0,0.3,0v1.8c-0.3,0.1-0.6,0.2-1.1,0.2
			c-1.4,0-2.2-0.8-2.2-2.2V1.1H-24.4z"/>
		<path class="st0" d="M-22.3,9.7v-4h-1.1V4.3l1.1-0.4l0.8-2h1.4v2.1h2.1v1.7h-2.1v4.1c0,0.6,0.3,0.9,0.9,0.9c0.4,0,0.8-0.1,1.2-0.4
			l0.6,1.7c-0.3,0.2-0.9,0.5-2.4,0.5C-21.3,12.5-22.3,11.8-22.3,9.7z"/>
		<path class="st0" d="M-17.5,8.2c0-2.6,1.1-4.4,3.9-4.4c2.9,0,3.8,1.7,3.8,4.4c0,2.6-1.1,4.4-3.9,4.4
			C-16.6,12.6-17.5,10.8-17.5,8.2z M-13.6,10.8c1.2,0,1.5-0.8,1.5-2.6c0-1.8-0.4-2.7-1.6-2.7c-1,0-1.5,0.8-1.5,2.6
			C-15.2,9.9-14.7,10.8-13.6,10.8z"/>
		<path class="st0" d="M-1.6,12.4h-2.3V7c0-0.9-0.4-1.4-1.2-1.4c-0.7,0-1.2,0.4-1.5,1v5.8h-2.3V3.9H-7l0.4,0.8h0.1
			c0.5-0.6,1.4-1,2.3-1c1.6,0,2.6,0.9,2.6,2.8V12.4z"/>
	</g>
	<g class="st1">
		<path class="st2" d="M-36.1,14.6v5c0,0.4,0.1,0.6,0.5,0.6c0.2,0,0.3-0.1,0.4-0.1v0.4c-0.2,0.1-0.4,0.1-0.5,0.1
			c-0.5,0-0.8-0.3-0.8-0.8v-5.1H-36.1z"/>
		<path class="st2" d="M-31.9,20.1c-0.3,0.2-0.7,0.3-1.2,0.3c-1.1,0-1.8-0.6-1.8-2.1c0-1.6,0.9-2.1,1.7-2.1c1,0,1.5,0.6,1.5,1.6
			c0,0.2,0,0.5,0,0.7h-2.7c0.1,1.1,0.5,1.5,1.4,1.5c0.4,0,0.8-0.2,1-0.3L-31.9,20.1z M-34.5,18.1h2.3c0-0.1,0-0.2,0-0.3
			c0-0.8-0.3-1.2-1.1-1.2C-33.9,16.6-34.4,17-34.5,18.1z"/>
		<path class="st2" d="M-28.3,17.4v1.9c0,0.4,0.1,0.7,0.4,0.7h0.1v0.3c0,0-0.1,0-0.1,0c-0.4,0-0.7-0.2-0.8-0.5h0
			c-0.2,0.2-0.5,0.6-1.3,0.6c-0.8,0-1.2-0.5-1.2-1.1c0-0.9,0.9-1.4,2.4-1.3v-0.5c0-0.7-0.3-1-1-1c-0.6,0-0.9,0.3-1,0.5l-0.3-0.3
			c0.1-0.2,0.5-0.7,1.4-0.7C-28.8,16.2-28.3,16.6-28.3,17.4z M-28.7,18.5c-1.1,0-2,0.2-2,0.9c0,0.4,0.3,0.7,0.8,0.7
			c0.5,0,0.9-0.3,1.1-0.6V18.5z M-28.9,15c0.3,0,0.4-0.1,0.5-0.2l0.2,0.3c0,0-0.2,0.3-0.7,0.3c-0.3,0-0.7-0.3-1-0.3
			c-0.2,0-0.4,0.1-0.5,0.2l-0.2-0.3c0.1,0,0.3-0.3,0.7-0.3C-29.6,14.8-29.2,15-28.9,15z"/>
		<path class="st2" d="M-27.2,18.4c0-1.3,0.5-2.2,1.7-2.2c1.2,0,1.7,0.9,1.7,2.1c0,1.3-0.5,2.2-1.7,2.2
			C-26.8,20.5-27.2,19.6-27.2,18.4z M-25.5,20.1c0.9,0,1.2-0.6,1.2-1.7c0-1.2-0.4-1.8-1.2-1.8c-0.9,0-1.2,0.6-1.2,1.7
			C-26.8,19.5-26.4,20.1-25.5,20.1z"/>
	</g>
</g>
</svg>
